<svg id="Layer_1" data-name="Layer 1" xmlns="http://www.w3.org/2000/svg" viewBox="0 0 180 70"><defs><style>.cls-1{fill:#231f20;fill-rule:evenodd;}</style></defs><title>brand logos</title><path class="cls-1" d="M62.23,43.45h-5.8l-1.78-4.29H45l-1.62,4.29H37.64L46.37,21.8h6.25l9.61,21.65ZM49.57,27,46.4,35.39h6.66L49.57,27Z"/><polygon class="cls-1" points="83.33 21.8 88.03 21.8 88.03 43.45 82.63 43.45 82.63 29.93 76.79 36.72 75.97 36.72 70.13 29.93 70.13 43.45 64.73 43.45 64.73 21.8 69.43 21.8 76.38 29.83 83.33 21.8 83.33 21.8"/><path class="cls-1" d="M101.7,21.8c7.9,0,12,4.92,12,10.86,0,6.22-3.93,10.79-12.56,10.79H92.15V21.8ZM97.54,39.48h3.53c5.42,0,7-3.68,7-6.85,0-3.72-2-6.86-7.11-6.86H97.54V39.48Z"/><polygon class="cls-1" points="135.47 26.86 124.38 26.86 117.63 20.09 142.36 20.05 142.36 44.81 135.47 37.89 135.47 26.86 135.47 26.86"/><polygon class="cls-1" points="124.38 38.1 124.41 28.1 117.39 35.12 117.39 45 127.54 45 134.44 38.1 124.38 38.1 124.38 38.1"/></svg>