<svg id="Layer_1" data-name="Layer 1" xmlns="http://www.w3.org/2000/svg" viewBox="0 0 180 70"><defs><style>.cls-1{fill:#0068b5;}</style></defs><title>brand logos</title><rect class="cls-1" x="53.79" y="19.77" width="5.7" height="5.7"/><path d="M59.35,49.47V28.94H54V49.47Zm35.86.2v-5a12.57,12.57,0,0,1-1.94-.12,2,2,0,0,1-1.85-1.79,13.14,13.14,0,0,1-.12-2V33.57h3.91V28.94H91.3v-8H85.88V40.79A17.57,17.57,0,0,0,86.31,45a5.89,5.89,0,0,0,1.44,2.71,5.74,5.74,0,0,0,2.64,1.48,15.42,15.42,0,0,0,4.11.45Zm31-.2V19.35h-5.42V49.47ZM80.67,31a8.17,8.17,0,0,0-6.29-2.44,7.91,7.91,0,0,0-3.55.8,7.49,7.49,0,0,0-2.68,2.19l-.3.38V28.94H62.51V49.47h5.38V38.92a6.19,6.19,0,0,1,1.42-4.26,4.66,4.66,0,0,1,3.43-1.46,4.43,4.43,0,0,1,3.55,1.42,6,6,0,0,1,1.17,3.94h0v0h0V49.45h5.46V37.8A9.66,9.66,0,0,0,80.67,31ZM118,39.16a10.75,10.75,0,0,0-2.94-7.54,9.65,9.65,0,0,0-3.35-2.27,10.88,10.88,0,0,0-4.3-.82,10.72,10.72,0,0,0-7.56,3.11,10.72,10.72,0,0,0-3.11,7.56,11,11,0,0,0,.8,4.18A10.08,10.08,0,0,0,103.16,49a11.18,11.18,0,0,0,4.41.85,11.63,11.63,0,0,0,9.12-4l-3.89-3a7.12,7.12,0,0,1-5.19,2.29,6.16,6.16,0,0,1-3.74-1.06,5.18,5.18,0,0,1-1.94-2.86l-.06-.18H118V39.16Zm-16.08-1.88c0-1.5,1.72-4.12,5.43-4.14s5.46,2.62,5.46,4.12Z"/></svg>