<svg id="Layer_1" data-name="Layer 1" xmlns="http://www.w3.org/2000/svg" viewBox="0 0 180 70"><defs><style>.cls-1{fill:#e1251b;}</style></defs><title>brand logos</title><path class="cls-1" d="M82.06,29.08a6.39,6.39,0,0,0-5,2.47h0V29.34H72.81v15.4H77V36a3.3,3.3,0,0,1,3.48-3.26A3.39,3.39,0,0,1,84.08,36v8.76h4.23V35.19a5.92,5.92,0,0,0-6.25-6.11"/><polygon class="cls-1" points="118.37 29.34 114.54 39.83 110.72 29.34 105.89 29.34 112.23 44.73 116.86 44.73 123.2 29.34 118.37 29.34"/><path class="cls-1" d="M60.19,34a3.91,3.91,0,0,1,3.25-1.53,3.53,3.53,0,0,1,3.28,2.15l-7.39,3.06A4.93,4.93,0,0,1,60.19,34m8.12,6a6.44,6.44,0,0,1-4.42,1.64,4.71,4.71,0,0,1-3.41-1.25L71.29,35.9a8.37,8.37,0,0,0-1.85-4.3,7.72,7.72,0,0,0-6.08-2.52,7.88,7.88,0,0,0-8.15,8c0,4.65,3.51,8,8.62,8A10.13,10.13,0,0,0,71,42.06Z"/><polygon class="cls-1" points="54.8 40.86 45.19 40.86 45.19 24.73 40.91 24.73 40.91 44.74 54.8 44.74 54.8 40.86"/><path class="cls-1" d="M130.79,32.7A4.06,4.06,0,0,0,126.71,37a4.19,4.19,0,0,0,4.14,4.33A4.07,4.07,0,0,0,134.92,37a4.19,4.19,0,0,0-4.13-4.34m0,12.3a8,8,0,1,1,8.3-8,8,8,0,0,1-8.3,8"/><path class="cls-1" d="M98.23,32.7A4.05,4.05,0,0,0,94.16,37a4.18,4.18,0,0,0,4.13,4.33A4.08,4.08,0,0,0,102.37,37a4.2,4.2,0,0,0-4.14-4.34m0,12.3a8,8,0,1,1,8.31-8,8,8,0,0,1-8.31,8"/></svg>