<svg id="Layer_1" data-name="Layer 1" xmlns="http://www.w3.org/2000/svg" viewBox="0 0 180 70"><defs><style>.cls-1,.cls-2,.cls-3,.cls-4{fill-rule:evenodd;}.cls-2{fill:#8a8a8b;}.cls-3{fill:#ed1c24;}.cls-4{fill:#fff;}</style></defs><title>brand logos</title><path class="cls-1" d="M131,43.17l4.45-12.27a38.87,38.87,0,0,0-6.65.66l-4.21,11.61Zm-.76-15.59-.86,2.36a38.54,38.54,0,0,1,6.65-.67l.86-2.35a38.87,38.87,0,0,0-6.65.66Z"/><path class="cls-1" d="M107.06,40.25a34,34,0,0,0,6.17.56c1.39,0,3.69-.17,3.9-2,.08-.7-.67-1.18-1.89-1.84-1.38-.77-2.44-1.17-3.65-2a2.94,2.94,0,0,1-1.31-3.41c1.21-4,7.09-4.71,10.56-4.71a37.29,37.29,0,0,1,7,.66L127,29.83c-2.09-.38-9.72-1.68-10.07,1.39-.08.7.63,1.16,1.84,1.82,1.38.76,2.5,1.2,3.7,2a2.94,2.94,0,0,1,1.31,3.41c-1.21,4-7.09,4.72-10.56,4.72a37.18,37.18,0,0,1-7-.67l.81-2.25Z"/><path class="cls-1" d="M97.4,43.17l3.71-10.24c1.46-4-5.45-2.42-7.1,2.11l-2.94,8.13H84.66l3.71-10.24c1.46-4-5.46-2.42-7.11,2.11l-2.94,8.13H71.91L77.8,26.92a5.19,5.19,0,0,1,4.07,1.38,2.58,2.58,0,0,1,.67,1.22,21.87,21.87,0,0,1,3-1.55,13.48,13.48,0,0,1,5-1,5.2,5.2,0,0,1,4.07,1.38,2.58,2.58,0,0,1,.67,1.22,21.87,21.87,0,0,1,3-1.55,13.42,13.42,0,0,1,5-1,5.21,5.21,0,0,1,4.08,1.38,3.6,3.6,0,0,1,.57,3.49l-4.13,11.38Z"/><path class="cls-2" d="M43.46,25a34.81,34.81,0,0,1,12.16-4.95l.13,0,.12,0A34.81,34.81,0,0,1,68,25l.36.23v.42c0,5.42-.85,11.21-3.34,16.08-1.94,3.81-4.94,7.1-9.06,8.53l-.25.09-.26-.09c-4.12-1.43-7.12-4.72-9.07-8.53-2.48-4.87-3.36-10.66-3.33-16.08v-.42l.37-.23Z"/><path class="cls-3" d="M43.87,25.68a34.29,34.29,0,0,1,11.87-4.84h0a34.29,34.29,0,0,1,11.87,4.84c.07,12.53-4.77,21.4-11.87,23.87h0c-7.1-2.47-11.94-11.34-11.87-23.87Z"/><path class="cls-1" d="M59.21,30.54c-1.56,1.81-4.05,2.07-5.76,2.15-.2,0-.59,0-.69.18a.23.23,0,0,0,.09.28c1.94,1.37,4.46.37,5.79-.29a6.42,6.42,0,0,1-6.33.81c-.28-.09-.46-.12-.55,0a.31.31,0,0,0,0,.35,4.16,4.16,0,0,0,2.64,2.55,4,4,0,0,1-3.25-2.78c0,1.56,1.33,2.63,1.89,3.25-.73,0-1.44.08-1.75.63-.22.34-.21.84-.51,1.3a7.68,7.68,0,0,1-.89-5.73,5.61,5.61,0,0,1,3.31-3.68,16.28,16.28,0,0,0-1.36,1.74c-.34.63.07.86.55,0,.65,1.59,5.37.64,6.6-.88l.45-.18-.22.28Zm-3,13.73a.24.24,0,0,1,.28-.09.28.28,0,0,1,.16.43c-.14.2-.38.34-.54.53a1.22,1.22,0,0,0-.14.28h0a1.45,1.45,0,0,1,.25-1.15ZM54,43.58a.35.35,0,0,1,.42,0,.43.43,0,0,1,.08.43,1.72,1.72,0,0,1-.43.32,1.4,1.4,0,0,0-.57.56,2.34,2.34,0,0,1,.16-.86,1.12,1.12,0,0,1,.34-.45Zm5.23-.27a.24.24,0,0,1,.23,0,.32.32,0,0,1,.13.21,3.47,3.47,0,0,0,.11.56,1.55,1.55,0,0,0,.12.22,1.27,1.27,0,0,1-.45-.3,1,1,0,0,1-.27-.45.23.23,0,0,1,.13-.26Zm-6.85-1.05a.32.32,0,0,1,.35.08c.1.1.06.23.05.34s-.08.14-.16.18l-.7.32a.89.89,0,0,0-.36.3,1.87,1.87,0,0,1,.2-.59,1.4,1.4,0,0,1,.62-.63Zm9.31-1.55c0-.09.07-.18.17-.22a1.14,1.14,0,0,1,.49.16.73.73,0,0,0,.29.07,1.3,1.3,0,0,1-.63.19c-.14,0-.3-.08-.32-.2ZM51,39.87a.36.36,0,0,1,.45.32c0,.14,0,.31-.15.4a9.21,9.21,0,0,0-.94.48,1.09,1.09,0,0,0-.24.24,2.31,2.31,0,0,1,.47-1.11,1.35,1.35,0,0,1,.41-.33Zm3.87-1.51a2.24,2.24,0,0,1,.69-.15,1,1,0,0,0-.53.3c0,.06-.09.16,0,.22s.21,0,.3.07.06.16,0,.23a2.47,2.47,0,0,1-.35.71.24.24,0,0,0-.06.17c.07,0,.12,0,.18-.07a3.84,3.84,0,0,0,.58-.47c.07-.09.17-.16.18-.27s-.13-.11-.14-.18a.69.69,0,0,1,.37-.27,1,1,0,0,1,1,.17,2.19,2.19,0,0,0-.5-.14.19.19,0,0,0-.22.11c0,.1,0,.19,0,.29a1.29,1.29,0,0,1-.71.85,1.23,1.23,0,0,0-.38.19.31.31,0,0,0-.12.24,1.18,1.18,0,0,0,.27,0,1.31,1.31,0,0,0,.59,0c.17-.07.24-.23.42-.29a1.1,1.1,0,0,1,1.26.39,2.78,2.78,0,0,0-.42-.22.51.51,0,0,0-.48.06,1.06,1.06,0,0,0-.31.36.23.23,0,0,1-.14.11c-.12,0-.24-.09-.36,0s-.33.13-.5.17a.92.92,0,0,1-.37,0,3.41,3.41,0,0,0-.64-.1.31.31,0,0,0-.28.08.54.54,0,0,0-.08.33A5.19,5.19,0,0,1,54,39.3a.92.92,0,0,1,.16.48.19.19,0,0,0,.16.18.4.4,0,0,0,.31-.2.85.85,0,0,0,.22-.57c0-.09-.15-.1-.2-.16a.35.35,0,0,1,0-.38.61.61,0,0,1,.35-.29ZM63,37.9c0-.07.11-.09.18-.09h.44a.83.83,0,0,1-.43.24c-.12,0-.22-.06-.19-.15Zm.1-1.79a1.46,1.46,0,0,0,.31-.14.47.47,0,0,1-.26.31.09.09,0,0,1,0-.17Zm-5.17-1.85a1.5,1.5,0,0,0,1,1.26,6.09,6.09,0,0,0,2.13,0,2.31,2.31,0,0,1,1.45.16,1.13,1.13,0,0,1,.39.51,6,6,0,0,1,.25.58.64.64,0,0,1-.07.54,1.57,1.57,0,0,0-.28.72c0,.25-.08.49-.13.74a2.81,2.81,0,0,1-.23.73c-.12.21-.33.38-.47.58a4,4,0,0,0-.5,1.06c-.1.29-.13.58-.22.87a.94.94,0,0,1-.48.63,11.48,11.48,0,0,1-1.33.43,4.18,4.18,0,0,0-1,.65,1.62,1.62,0,0,1-.81.45c-.66.1-.83-.42-2,0a.51.51,0,0,1-.45,0c-.28-.13-.32-.52-.63-.69a4.53,4.53,0,0,0-1.06-.22.54.54,0,0,1-.37-.24c-.1-.21-.1-.44-.19-.64-.23-.47-1-.62-1.2-1.05s.08-.69.08-1-.35-.72-1-.75A3.75,3.75,0,0,0,51.39,38a1,1,0,0,1,.33-.55,2.62,2.62,0,0,1,.7-.23,1.45,1.45,0,0,1,.8,0,1.06,1.06,0,0,1,.15,1.56c-.43.49-1.52.39-1.33-.38.22.19.44.48.75.14a.17.17,0,0,0,0-.12.5.5,0,0,0-.31-.31.45.45,0,0,0-.28,0,1.09,1.09,0,0,0-.65.53c-.24.48.29.87.9.77a2.37,2.37,0,0,0,1.19-.64,10.87,10.87,0,0,0,.06,1.7,4.55,4.55,0,0,0,.43,1.37,1.89,1.89,0,0,0,1,.87,4.08,4.08,0,0,0,1.52.19,7.54,7.54,0,0,0,2.9-.75,4,4,0,0,0,1.86-2,11,11,0,0,0,.65-1.46,4.1,4.1,0,0,0,.31-1.49,1.33,1.33,0,0,0-.27-.86c-.5-.63-1.57-.36-2.55-.39a.41.41,0,0,0,0,.48c.24.26.82.22,1.22.25a2.57,2.57,0,0,1-3.61-1.39c.35.44.91,1.33,1.77,1.07.32-.09.17-.32.07-.49s-.13-.06-.2-.08a1.28,1.28,0,0,1-.91-1.54ZM52.48,34c.13.1.17.23.3.33,1.19.91,2.25.9,3.77.95a4.59,4.59,0,0,1-4-.78,1.24,1.24,0,0,1-.3-.39c-.07-.21.11-.23.26-.11Zm5.64-.25A2.65,2.65,0,0,1,61,35.3,1.7,1.7,0,0,0,59.91,35c-.07,0-.14.06-.15.12s0,.18.08.28a1.44,1.44,0,0,1-1.45-.58,2,2,0,0,0,.47.2.93.93,0,0,0,.84-.29c.12-.13,0-.29-.09-.39a5.55,5.55,0,0,0-1.49-.64Zm1.25-2.2c.16-.12.3-.25.45-.38a6,6,0,0,1-3.65,2.09,5.25,5.25,0,0,1-2.7,0c-.07,0-.14-.11-.08-.17a.72.72,0,0,1,.39-.06c.25,0,.53,0,.78,0a11.2,11.2,0,0,0,2-.19,7,7,0,0,0,2.81-1.25ZM47.05,27.76a1,1,0,0,1,.56.06,1.14,1.14,0,0,1,.44.43c0,.08.1.17.06.26l-.18,0c0,.05,0,.12,0,.18a2.65,2.65,0,0,0,.3.84.43.43,0,0,0,.09.1,4.32,4.32,0,0,1,.1-.95s0-.1.12-.11.2.09.31.07.08-.15.07-.22-.21-.32-.34-.48a1.56,1.56,0,0,1,.65.65.37.37,0,0,1-.11.47c-.07.06-.18,0-.27,0a.68.68,0,0,0-.12.68c0,.06,0,.16.13.15a1.86,1.86,0,0,0,.52-.28,5.92,5.92,0,0,0-1,1.4,1.28,1.28,0,0,0,0-.39.36.36,0,0,0-.18-.16c-.2-.1-.44-.15-.64-.25a1.32,1.32,0,0,1-.46-.45c-.08-.1-.25-.05-.35-.13s0-.2-.05-.31,0-.37-.21-.47a1.33,1.33,0,0,0-.63-.11h0a1,1,0,0,1,.51-.09,1,1,0,0,1,.67.37c.11.13.09.3.19.43a1.44,1.44,0,0,0,.31.22,1.1,1.1,0,0,0,.4.17.48.48,0,0,0-.11-.44,1.38,1.38,0,0,1-.32-.72.77.77,0,0,1,.09-.51c0-.08.12-.18.05-.26s-.36-.16-.55-.21Zm7.54-2.9c.54.35,1.26.79,1.85,1.09-.13.1-.28.26-.46.26a4.48,4.48,0,0,1-1.39-1.35Zm.79-1.2h0A7.85,7.85,0,0,0,58.26,26a2.37,2.37,0,0,0,1,.29c.21,0,.42-.13.63-.13a1.25,1.25,0,0,1,.67.23.18.18,0,0,1,.1.14,1.21,1.21,0,0,0,.35.69.66.66,0,0,0,.54.08.41.41,0,0,0,.29.32c.17,0,.3-.13.48-.09l.19.29c.07.06.19.08.27.14a1.56,1.56,0,0,1,.63.73,1.74,1.74,0,0,0-.66-.53c0,.42,0,1-.3,1.22a1.41,1.41,0,0,0-.16-.76,2.21,2.21,0,0,1-.81.48c.12-.15.37-.31.29-.5a.66.66,0,0,0-.5-.07,1.74,1.74,0,0,0-.71.38,2.5,2.5,0,0,0-.16-.41c-.15,0-.69.2-.54.44s.61.18.84.22a.63.63,0,0,1,.33.29,3.11,3.11,0,0,1,0-.32,8.85,8.85,0,0,1,.63.88c.27-.11.33-.24.36-.59a1,1,0,0,1,.12.52.5.5,0,0,0,.17-.23,1.16,1.16,0,0,1-.67,1.4c.12-.32.17-.59-.25-.59a9,9,0,0,0-1,.16c.13-.07.7-.39.6-.57a.36.36,0,0,0-.21-.13,3.33,3.33,0,0,0-.63-.21c-.11,0-.21.06-.3.1-.55-.26-.74.06-1.13.12a1.06,1.06,0,0,1-1-.46c-.44-.68.22-1.1.78-1.27-.73-.09-1,.16-1.21.9a5.51,5.51,0,0,0-1-.21,6.11,6.11,0,0,0-5.48,1.55,6.77,6.77,0,0,0-1.74,4.37,6.58,6.58,0,0,0,1.26,3.87,7.4,7.4,0,0,1-2-3c-.15.17-.11.39-.15.58-.68-.93.27-3.28.72-4.33a3.18,3.18,0,0,0-.83.71c0-1.34,1.13-2.68,2.33-3.77a3.4,3.4,0,0,0-1,.36,7.88,7.88,0,0,1,5.16-2,10,10,0,0,0-1.45-.26c1.48-.3,2.5-.32,3.5-1,.47.3,1,.61,1.28.53a7.43,7.43,0,0,1-2.56-3Zm4.39,3.17a3.17,3.17,0,0,0,.3.34.52.52,0,0,0,.53.17,1.83,1.83,0,0,0-.14-.32.17.17,0,0,0-.15-.07l-.54-.12Z"/><path class="cls-4" d="M59.13,30.34c-1.56,1.81-4.05,2.07-5.76,2.14-.2,0-.58.05-.68.19a.22.22,0,0,0,.08.28c1.94,1.37,4.46.36,5.79-.29a6.42,6.42,0,0,1-6.33.81c-.28-.1-.46-.12-.55,0a.3.3,0,0,0,0,.35,4.17,4.17,0,0,0,2.64,2.54,4,4,0,0,1-3.24-2.77c0,1.55,1.33,2.63,1.88,3.24-.73,0-1.44.09-1.75.63-.22.35-.21.85-.51,1.3A7.65,7.65,0,0,1,49.8,33a5.61,5.61,0,0,1,3.32-3.68,14.26,14.26,0,0,0-1.37,1.73c-.34.64.08.86.55.05.65,1.58,5.37.63,6.6-.88l.45-.19-.22.29Zm-3,13.72a.27.27,0,0,1,.28-.09.29.29,0,0,1,.17.44c-.15.2-.39.34-.55.53a1,1,0,0,0-.14.28h0a1.43,1.43,0,0,1,.24-1.16ZM54,43.37a.34.34,0,0,1,.42,0,.43.43,0,0,1,.08.43,2,2,0,0,1-.43.32,1.34,1.34,0,0,0-.57.56,2.34,2.34,0,0,1,.16-.86,1.25,1.25,0,0,1,.34-.46Zm5.23-.27a.26.26,0,0,1,.23,0,.32.32,0,0,1,.13.21,3.69,3.69,0,0,0,.11.56c0,.07.08.14.12.22a1.42,1.42,0,0,1-.45-.3,1,1,0,0,1-.27-.45.25.25,0,0,1,.13-.27Zm-6.85-1.05a.34.34,0,0,1,.35.08c.1.1.06.24,0,.35s-.08.14-.16.18-.48.2-.7.31a1.07,1.07,0,0,0-.36.3,1.82,1.82,0,0,1,.2-.58,1.46,1.46,0,0,1,.62-.64Zm9.31-1.54c0-.1.07-.18.17-.23a1.15,1.15,0,0,1,.49.17.94.94,0,0,0,.29.06,1.12,1.12,0,0,1-.63.19c-.14,0-.3-.07-.32-.19ZM51,39.67c.06,0,.15,0,.21,0a.32.32,0,0,1,.24.32c0,.14,0,.31-.15.4a7.55,7.55,0,0,0-.94.48.75.75,0,0,0-.23.24A2.17,2.17,0,0,1,50.55,40a1.33,1.33,0,0,1,.41-.33Zm3.87-1.51a2,2,0,0,1,.69-.15,1.09,1.09,0,0,0-.53.29c-.05.07-.09.16,0,.23a2.47,2.47,0,0,0,.29.06c.09.06.06.16,0,.24a2.47,2.47,0,0,1-.35.71.27.27,0,0,0-.06.17c.07,0,.12-.05.18-.08a2.65,2.65,0,0,0,.58-.47c.07-.08.17-.16.19-.26s-.14-.11-.15-.19a.73.73,0,0,1,.37-.26,1,1,0,0,1,1,.16,2.83,2.83,0,0,0-.5-.13c-.09,0-.2,0-.22.11s0,.19,0,.29a1.3,1.3,0,0,1-.71.85,1.23,1.23,0,0,0-.38.19.28.28,0,0,0-.12.23.8.8,0,0,0,.27,0,1.31,1.31,0,0,0,.59,0c.17-.07.24-.24.42-.3a1.11,1.11,0,0,1,1.26.39c-.14-.06-.26-.16-.42-.22a.54.54,0,0,0-.48.06,1.17,1.17,0,0,0-.31.36.2.2,0,0,1-.14.11c-.12,0-.24-.08-.36,0s-.33.13-.5.17a.77.77,0,0,1-.37,0,4.49,4.49,0,0,0-.64-.1.37.37,0,0,0-.28.08.56.56,0,0,0-.08.33,4.75,4.75,0,0,1-.19-.83,4.11,4.11,0,0,1,0-1,.91.91,0,0,1,.16.47.2.2,0,0,0,.16.19.43.43,0,0,0,.31-.2.87.87,0,0,0,.22-.57c0-.1-.14-.1-.2-.17a.34.34,0,0,1-.05-.37.61.61,0,0,1,.35-.29Zm8.05-.46c0-.08.11-.1.18-.09a3.23,3.23,0,0,0,.44,0,.85.85,0,0,1-.43.25c-.12,0-.22-.07-.19-.15Zm.1-1.79a2.23,2.23,0,0,0,.31-.15.45.45,0,0,1-.26.31.08.08,0,0,1-.05-.16Zm-5.17-1.85a1.52,1.52,0,0,0,1,1.26,6.09,6.09,0,0,0,2.13,0,2.31,2.31,0,0,1,1.45.16,1.13,1.13,0,0,1,.39.51c.09.19.18.38.25.57a.67.67,0,0,1-.07.55,1.64,1.64,0,0,0-.28.72c0,.25-.08.49-.13.73a2.45,2.45,0,0,1-.23.74c-.12.21-.33.37-.47.58a4,4,0,0,0-.5,1.06c-.09.28-.13.58-.22.87a1,1,0,0,1-.48.63,13.78,13.78,0,0,1-1.33.43,4.14,4.14,0,0,0-1,.64,1.63,1.63,0,0,1-.81.46c-.66.1-.82-.42-2,0a.54.54,0,0,1-.45,0c-.28-.14-.32-.52-.63-.69A4.08,4.08,0,0,0,53.37,43a.51.51,0,0,1-.37-.24c-.1-.2-.1-.43-.19-.64-.23-.46-1-.62-1.2-1s.08-.68.08-1-.35-.73-1-.75a3.79,3.79,0,0,0,.61-1.48,1,1,0,0,1,.33-.54,2.74,2.74,0,0,1,.7-.23,1.32,1.32,0,0,1,.81,0,1.06,1.06,0,0,1,.14,1.56c-.43.49-1.52.39-1.33-.38.22.19.44.48.75.14a.17.17,0,0,0,0-.12.48.48,0,0,0-.31-.31.39.39,0,0,0-.28,0,1.09,1.09,0,0,0-.65.53c-.24.48.29.86.9.77a2.3,2.3,0,0,0,1.19-.65,11,11,0,0,0,.06,1.71,4.64,4.64,0,0,0,.43,1.37,1.88,1.88,0,0,0,1,.87,4,4,0,0,0,1.51.19,7.54,7.54,0,0,0,2.9-.75,4,4,0,0,0,1.86-2A10,10,0,0,0,62,38.49,4,4,0,0,0,62.3,37a1.31,1.31,0,0,0-.27-.86c-.5-.64-1.57-.37-2.55-.4-.08.16-.14.33,0,.48s.83.22,1.22.25a2.56,2.56,0,0,1-3.61-1.38c.35.44.91,1.33,1.77,1.07.32-.1.17-.32.07-.49s-.13-.06-.19-.08a1.29,1.29,0,0,1-.92-1.54Zm-5.4-.29c.12.1.16.24.29.34,1.19.9,2.25.9,3.77,1a4.59,4.59,0,0,1-4-.78,1.36,1.36,0,0,1-.3-.39c-.07-.21.11-.24.27-.12Zm5.64-.25A2.66,2.66,0,0,1,60.9,35.1a1.7,1.7,0,0,0-1.07-.27.18.18,0,0,0-.15.11.51.51,0,0,0,.08.29,1.46,1.46,0,0,1-1.45-.58,2.43,2.43,0,0,0,.47.19.94.94,0,0,0,.84-.28c.12-.13.05-.3-.09-.4a5.82,5.82,0,0,0-1.48-.64Zm1.24-2.2c.16-.11.3-.25.45-.37A6,6,0,0,1,56.09,33a5.36,5.36,0,0,1-2.7,0c-.07,0-.14-.11-.07-.17s.25-.06.38-.06.53,0,.78,0a12.2,12.2,0,0,0,2-.19,7,7,0,0,0,2.81-1.26ZM47,27.56a.83.83,0,0,1,.56.06,1,1,0,0,1,.44.43c0,.08.1.17.06.26a1.13,1.13,0,0,0-.18,0c-.05.05,0,.12,0,.17a2.65,2.65,0,0,0,.3.84.43.43,0,0,0,.09.1,4.23,4.23,0,0,1,.1-.94c0-.05,0-.11.12-.12s.2.1.31.08.08-.15.07-.22-.21-.33-.34-.48a1.51,1.51,0,0,1,.65.65.38.38,0,0,1-.11.47.41.41,0,0,1-.27,0,.68.68,0,0,0-.12.68c0,.06,0,.16.13.15a2.43,2.43,0,0,0,.53-.28,5.51,5.51,0,0,0-1,1.4,1.28,1.28,0,0,0,0-.39.32.32,0,0,0-.18-.16c-.2-.1-.43-.16-.64-.25a1.52,1.52,0,0,1-.46-.45c-.08-.11-.25-.05-.35-.13s0-.21,0-.31,0-.37-.21-.47a1.22,1.22,0,0,0-.63-.11h0a1.11,1.11,0,0,1,.51-.1,1.1,1.1,0,0,1,.67.38c.11.13.09.29.19.42a1,1,0,0,0,.31.22,1.12,1.12,0,0,0,.4.18.48.48,0,0,0-.11-.44,1.38,1.38,0,0,1-.32-.72.77.77,0,0,1,.09-.51c0-.08.12-.18.05-.27s-.36-.15-.55-.2Zm7.54-2.91a18,18,0,0,0,1.85,1.09c-.13.11-.28.27-.46.27a4.4,4.4,0,0,1-1.39-1.36Zm.79-1.19h0a7.83,7.83,0,0,0,2.86,2.36,2.52,2.52,0,0,0,1,.3c.21,0,.42-.13.63-.13a1.08,1.08,0,0,1,.67.23.16.16,0,0,1,.1.14,1.24,1.24,0,0,0,.35.69.62.62,0,0,0,.54.07.42.42,0,0,0,.29.33c.17,0,.3-.14.48-.09s.12.19.19.29.19.08.27.14a1.59,1.59,0,0,1,.63.72A1.72,1.72,0,0,0,62.7,28c0,.41,0,1-.3,1.22a1.38,1.38,0,0,0-.16-.77,2.1,2.1,0,0,1-.81.49c.13-.15.37-.32.29-.5a.62.62,0,0,0-.5-.07,1.74,1.74,0,0,0-.71.38,2.5,2.5,0,0,0-.16-.41c-.15,0-.69.2-.54.44s.61.18.84.22a.59.59,0,0,1,.33.29c0-.11,0-.22,0-.33a9,9,0,0,1,.63.89c.27-.12.33-.24.36-.59a.94.94,0,0,1,.12.51.47.47,0,0,0,.17-.22,1.14,1.14,0,0,1-.67,1.39c.12-.31.17-.58-.25-.58a9,9,0,0,0-1,.16c.13-.07.7-.39.6-.58s-.13-.09-.21-.12a2.34,2.34,0,0,0-.63-.21c-.11,0-.21.06-.3.1-.55-.26-.74.06-1.13.12a1.08,1.08,0,0,1-1-.46c-.44-.68.22-1.1.78-1.28-.73-.08-1,.17-1.21.9a6.62,6.62,0,0,0-1-.21,6.14,6.14,0,0,0-5.48,1.56,6.75,6.75,0,0,0-1.74,4.36,6.61,6.61,0,0,0,1.26,3.88,7.4,7.4,0,0,1-2-3c-.15.17-.1.38-.15.58-.68-.93.27-3.28.72-4.33a3.15,3.15,0,0,0-.83.7c0-1.33,1.13-2.68,2.34-3.76a3.35,3.35,0,0,0-1,.36,7.83,7.83,0,0,1,5.16-2,10,10,0,0,0-1.45-.26c1.48-.31,2.5-.32,3.5-1,.47.3,1,.61,1.28.53a7.49,7.49,0,0,1-2.56-3Zm4.39,3.17A3.17,3.17,0,0,0,60,27a.55.55,0,0,0,.53.17,1.92,1.92,0,0,0-.14-.33.24.24,0,0,0-.15-.07l-.54-.11Z"/><path class="cls-1" d="M43.87,25.68a34.29,34.29,0,0,1,11.87-4.84h0a34.29,34.29,0,0,1,11.87,4.84v.26a34.49,34.49,0,0,0-11.7-4.85h0A33.7,33.7,0,0,0,44,25.79c0,8.89,2.37,16,6.31,20.22-4-4.2-6.53-11.32-6.48-20.33Z"/></svg>