<svg id="Layer_1" data-name="Layer 1" xmlns="http://www.w3.org/2000/svg" viewBox="0 0 180 70"><defs><style>.cls-1{fill:#7bc043;}</style></defs><title>brand logos</title><path class="cls-1" d="M132.14,25.61c-.29-.43-.64-.72-2.08-.83-.38,0-1.63-.07-3.73-.07-5.52,0-9.27,1.68-11.19,5q.8-5-9.73-5Q93,24.7,90,34.66a9.45,9.45,0,0,0-.24,6.08l-1.94.12c-1.52.12-3.52.22-4.75.22-3,0-4.89-.5-5.61-1.51s-.59-2.6.17-5.06C78.85,30.43,82,28.6,87,28.6a50.61,50.61,0,0,1,5.09.27h0a.56.56,0,0,0,.47-.68l-.05-.39-.18-1.37c-.12-.9-.79-1.43-2-1.6s-2-.13-3.18-.13H87q-9.78,0-13.62,6.41,1.43-6.42-9-6.42A73.06,73.06,0,0,0,56,25a2.49,2.49,0,0,0-2.36,1.61l-.56,1.76c-.1.32.06.48.47.48h0c.31,0,1.49-.16,3.51-.32q4-.31,5.94-.32,5.75,0,4.85,2.88a1.09,1.09,0,0,1-.87.79q-5.44.92-8.64,1.3c-6,.77-9.46,2.63-10.4,5.61Q46.06,45,57.6,45a59.27,59.27,0,0,0,9.66-.66c1.5-.25,2.26-.63,2.56-1.6l1.43-4.56Q71,45,80.84,45a51.35,51.35,0,0,0,6.79-.31c1.34-.24,2-.53,2.28-1.54l.29-1.44Q92.29,45,99.38,45q7.47,0,8.71-.41a1.73,1.73,0,0,0,1.28-1.08,2.11,2.11,0,0,0,.06-.29l.59-1.93c.11-.34,0-.5-.46-.48l-3.18.15c-2.13.11-3.8.17-5,.17a15.73,15.73,0,0,1-4.67-.46,2.68,2.68,0,0,1-1.8-2.9l10.1-1.3q6.8-.87,9.09-4.18l-3.42,11.92a.55.55,0,0,0,.07.54.84.84,0,0,0,.67.22h4.18a1,1,0,0,0,1.08-.69l3.7-12.87c.48-1.69,2-2.51,4.76-2.51,2.45,0,4.3,0,5.48.06h.09a.88.88,0,0,0,.85-.65l.65-1.76a.94.94,0,0,0-.07-.9M64.77,41.08a38.09,38.09,0,0,1-5.63.31q-6.37,0-5.57-2.57c.39-1.23,1.5-2,3.35-2.22l9.66-1.3Zm44.66-10.42q-.62,2-5.67,2.71l-8.05,1.14.2-.66a7.72,7.72,0,0,1,2.84-4.43c1.23-.78,3.22-1.18,6-1.18,3.63,0,5.19.81,4.7,2.42"/></svg>