<svg id="Layer_1" data-name="Layer 1" xmlns="http://www.w3.org/2000/svg" viewBox="0 0 180 70"><defs><style>.cls-1{fill:#0d96d3;}</style></defs><title>brand logos</title><path class="cls-1" d="M105,27.27h-4L95.54,42.48h4ZM90,59.73h-.74l5.08-14h7a3.42,3.42,0,0,0,3-2.1l5.51-15.13A3.15,3.15,0,0,0,106.68,24H97L88.85,46.38h0L84.23,59.06a24.86,24.86,0,0,1-.94-48.12L78.53,24h0L70.62,45.76h5.26l6.73-18.47h4L79.84,45.76h5.27l6.27-17.23A3.15,3.15,0,0,0,88.23,24H83.8l5.08-14c.37,0,.75,0,1.12,0a24.86,24.86,0,1,1,0,49.71"/></svg>