<svg id="Layer_1" data-name="Layer 1" xmlns="http://www.w3.org/2000/svg" viewBox="0 0 180 70"><defs><style>.cls-1{fill:#1d458c;fill-rule:evenodd;}</style></defs><title>brand logos</title><path class="cls-1" d="M95.74,24.73h.08v5.62H90.15V24.73ZM71,36.61l13.13.82a1,1,0,0,1,1,1h0a1,1,0,0,1-1,1H65.46V32.1A6.27,6.27,0,0,0,71,36.61Zm-5.58,8.45H84.58a5.78,5.78,0,0,0,5.65-4.65,5.62,5.62,0,0,0,5.51,4.65H108a5.62,5.62,0,0,0,5.5-4.59v4.59h19.59a5.76,5.76,0,0,0,5.75-5.75V38.5a5.76,5.76,0,0,0-5.75-5.75l-1.07,0c-6.1-.27-12.18-.58-18.27-.89a6.24,6.24,0,0,0,5.65,4.8l13.27.82a1,1,0,0,1,1,1h0a1,1,0,0,1-1,1H113.56V31.8l-5.68-.29V38a1.66,1.66,0,0,1-1.65,1.66H97.48A1.67,1.67,0,0,1,95.82,38V30.89l-5.67-.3v6.46a5.72,5.72,0,0,0-5.57-4.2l-25-1.64V45.06h5.88ZM89.25,30.35V24.7H71a5.77,5.77,0,0,0-5.58,4.38V24.73H54.59l-3.71,5.62H89.25Zm-32.06.72-9,14h-7L50.66,30.7l6.53.37Zm81.62-.72V24.7H119.37a5.78,5.78,0,0,0-5.75,5.65Zm-30.93,0V24.73h5.68v5.62Z"/></svg>