<svg id="Layer_1" data-name="Layer 1" xmlns="http://www.w3.org/2000/svg" viewBox="0 0 180 70"><defs><style>.cls-1{fill:#ef5125;}.cls-2{fill:#80ba42;}.cls-3{fill:#787878;}.cls-4{fill:#349fd9;}.cls-5{fill:#fcb713;}</style></defs><title>brand logos</title><path class="cls-1" d="M20.24,20H34.41V34.13H20.24V20Z"/><path class="cls-2" d="M35.86,20H50V34.13H35.86V20Z"/><path class="cls-3" d="M82.42,25.53a1.88,1.88,0,0,1,1.7.61,1.74,1.74,0,0,1,.21,2,1.91,1.91,0,0,1-2,.85,1.72,1.72,0,0,1-1.42-1.71,1.77,1.77,0,0,1,1.55-1.74Z"/><path class="cls-3" d="M58.93,25.91h4.46c1.38,3.53,2.78,7.05,4.17,10.57.36.88.69,1.77,1.06,2.65,1.79-4.41,3.6-8.8,5.37-13.21,1.43,0,2.86,0,4.29,0,0,5.95,0,11.91,0,17.87-1,0-2.07,0-3.1,0,0-4.39,0-8.79,0-13.19,0-.19,0-.39,0-.59a1.64,1.64,0,0,0-.16.29c-1.77,4.5-3.58,9-5.34,13.49-.73,0-1.47,0-2.2,0Q64.72,37,62,30.28a1.75,1.75,0,0,0-.16-.27c0,1.92,0,3.85,0,5.78,0,2.66,0,5.33,0,8H58.93V25.91Z"/><path class="cls-3" d="M90.86,31a8.28,8.28,0,0,1,4.55,0,3.33,3.33,0,0,1,.87.36c0,1,0,2,0,2.94a4.86,4.86,0,0,0-3.5-1.08,3.63,3.63,0,0,0-2.55,1.41,4.94,4.94,0,0,0-.81,3.55,3.61,3.61,0,0,0,4.1,3.4,5.74,5.74,0,0,0,2.76-1.13c0,.93,0,1.86,0,2.78a7.41,7.41,0,0,1-4.19.87,6.22,6.22,0,0,1-4-1.67,6.39,6.39,0,0,1-1.86-4.29,7.8,7.8,0,0,1,1.22-4.75,6.11,6.11,0,0,1,3.4-2.4Z"/><path class="cls-3" d="M124.34,30.77a8.07,8.07,0,0,1,4.24.44c0,.94,0,1.88,0,2.82a5.45,5.45,0,0,0-3.22-1,1.63,1.63,0,0,0-1.47.81,1.33,1.33,0,0,0,.45,1.57c.87.58,1.9.83,2.8,1.35a4.06,4.06,0,0,1,1.76,1.67,3.74,3.74,0,0,1-.8,4.31,5.87,5.87,0,0,1-4.26,1.3,9,9,0,0,1-3.12-.72c0-1,0-2,0-3a6.81,6.81,0,0,0,2.79,1.2,3.54,3.54,0,0,0,2.11-.2,1.22,1.22,0,0,0,.37-1.74,3.61,3.61,0,0,0-1.34-.87A13.27,13.27,0,0,1,122,37.44a3.17,3.17,0,0,1-1.14-1.74,3.91,3.91,0,0,1,.42-3.06,4.58,4.58,0,0,1,3-1.87Z"/><path class="cls-3" d="M103.14,31.17a3.48,3.48,0,0,1,2.84-.24V34a3.28,3.28,0,0,0-2.07-.49A2.56,2.56,0,0,0,102,35.05a5.56,5.56,0,0,0-.43,2.61v6.13h-3c0-4.27,0-8.54,0-12.81,1,0,2,0,3,0,0,.74,0,1.47,0,2.2a3.89,3.89,0,0,1,1.58-2Z"/><path class="cls-3" d="M81.14,31c1,0,2,0,3.06,0,0,4.26,0,8.53,0,12.8h-3c0-4.27,0-8.54,0-12.81Z"/><path class="cls-3" d="M118.69,34A5.44,5.44,0,0,0,116,31.26a8.08,8.08,0,0,0-4.38-.51,6.09,6.09,0,0,0-4,2.15,6.77,6.77,0,0,0-1.42,3.91,7.38,7.38,0,0,0,1.12,4.79,5.83,5.83,0,0,0,3.54,2.31,8.69,8.69,0,0,0,3.59,0A5.88,5.88,0,0,0,118,41.74,6.73,6.73,0,0,0,119.3,38,8.32,8.32,0,0,0,118.69,34Zm-3,5.88a2.77,2.77,0,0,1-1.51,1.48,4.15,4.15,0,0,1-2.49.11,3,3,0,0,1-1.92-1.59,5.85,5.85,0,0,1-.47-3.2A4.06,4.06,0,0,1,110.52,34a3.55,3.55,0,0,1,4.58.08,4.11,4.11,0,0,1,1.06,2.67A6.68,6.68,0,0,1,115.73,39.85Z"/><path class="cls-3" d="M143.24,34.34a5.46,5.46,0,0,0-2.63-3,7.9,7.9,0,0,0-4.55-.62,6.39,6.39,0,0,0-3.39,1.45,6.29,6.29,0,0,0-2,3.94,8.43,8.43,0,0,0,.48,4.45,5.65,5.65,0,0,0,3.11,3,8.26,8.26,0,0,0,4.32.37,6,6,0,0,0,3.77-2.21,7,7,0,0,0,1.39-4.36A8.15,8.15,0,0,0,143.24,34.34Zm-2.76,4.34a3.91,3.91,0,0,1-.8,1.88,2.83,2.83,0,0,1-1.79,1,4.1,4.1,0,0,1-2.19-.24,3.15,3.15,0,0,1-1.62-1.69,6.16,6.16,0,0,1-.36-2.79,4.47,4.47,0,0,1,.93-2.56,3.15,3.15,0,0,1,2.24-1.07,3.33,3.33,0,0,1,2.45.73,3.53,3.53,0,0,1,1.11,2A7.82,7.82,0,0,1,140.48,38.68Z"/><path class="cls-3" d="M159.76,33.47V31c-1,0-2,0-3,0,0-1.27,0-2.55,0-3.83-1,.3-2,.63-3,.92,0,1,0,1.94,0,2.91h-4.48a19.58,19.58,0,0,1,.05-2.3,1.8,1.8,0,0,1,1-1.43,2.93,2.93,0,0,1,2.26.21c0-.88,0-1.75,0-2.63a5.56,5.56,0,0,0-4.47.53,4.21,4.21,0,0,0-1.73,2.36,13.16,13.16,0,0,0-.21,3.26c-.71,0-1.41,0-2.12,0,0,.82,0,1.63,0,2.45.71,0,1.42,0,2.13,0V43.79h3.07V33.45h4.48c0,2.2,0,4.39,0,6.59a4.57,4.57,0,0,0,.86,2.92A3.38,3.38,0,0,0,157,44.07a5.94,5.94,0,0,0,2.8-.43V41.13a2.28,2.28,0,0,1-2.33.22,1.54,1.54,0,0,1-.66-1.22,23.63,23.63,0,0,1-.05-2.38v-4.3C157.73,33.46,158.75,33.43,159.76,33.47Z"/><path class="cls-4" d="M20.24,35.57H34.41V49.75H20.24V35.57Z"/><path class="cls-5" d="M35.86,35.58H50V49.75H35.86V35.58Z"/></svg>