<svg id="Layer_1" data-name="Layer 1" xmlns="http://www.w3.org/2000/svg" viewBox="0 0 180 70"><defs><style>.cls-1,.cls-2{fill:#1b82c5;}.cls-1{fill-rule:evenodd;}</style></defs><title>brand logos</title><path class="cls-1" d="M73.86,29.28h4.55l.5,0,.48,0,.46.1.44.11.39.17.37.16.36.21.33.23.29.25.29.27.25.29.23.31.19.34.19.33.14.35.13.36,6.46-4.16,2.36,1.58-5,3.24L88,34l5.08-3.22,2.18,1.45-5,3.31.85.52,5.1-3.24V29.28H100v7.09h3.33V39.7H96.24V36.29l-6.3,4.06L83.51,36l-.13.37-.12.36-.19.35-.19.35-.22.31-.25.32-.28.29-.31.25-.31.25-.37.21-.38.18-.41.17-.44.12-.46.09-.47.06-.53,0H73.86V29.28Zm3.57,3.26h1l.44.05.35.12.32.19.27.25.18.29.15.31.08.36,0,.35,0,.35-.08.36-.15.31-.2.29-.25.25-.32.19-.37.12-.42,0h-1V32.54Zm26.82-3.26H108v7.09h3.31V39.7h-7.07V29.28Z"/><path class="cls-2" d="M92.29,12.77A22.21,22.21,0,1,1,70.08,35,22.23,22.23,0,0,1,92.29,12.77m0-2.75a25,25,0,1,0,25,25,25,25,0,0,0-25-25Z"/></svg>